<?xml version="1.0" encoding="UTF-8" standalone="no"?>
<!-- Created with Inkscape (http://www.inkscape.org/) -->

<svg
   xmlns:dc="http://purl.org/dc/elements/1.1/"
   xmlns:cc="http://creativecommons.org/ns#"
   xmlns:rdf="http://www.w3.org/1999/02/22-rdf-syntax-ns#"
   xmlns:svg="http://www.w3.org/2000/svg"
   xmlns="http://www.w3.org/2000/svg"
   xmlns:sodipodi="http://sodipodi.sourceforge.net/DTD/sodipodi-0.dtd"
   xmlns:inkscape="http://www.inkscape.org/namespaces/inkscape"
    viewBox="0 0 900 500"
   id="svg2"
   version="1.1"
   inkscape:version="0.48.4 r9939"
   sodipodi:docname="sad7-no-bg.svg">
  <defs
     id="defs4" />
  <sodipodi:namedview
     id="base"
     pagecolor="#ffffff"
     bordercolor="#666666"
     borderopacity="1.0"
     inkscape:pageopacity="0"
     inkscape:pageshadow="2"
     inkscape:zoom="1"
     inkscape:cx="427.06252"
     inkscape:cy="317.01597"
     inkscape:document-units="px"
     inkscape:current-layer="layer1"
     showgrid="false"
     inkscape:window-width="1920"
     inkscape:window-height="1017"
     inkscape:window-x="1912"
     inkscape:window-y="-8"
     inkscape:window-maximized="1" />
  <metadata
     id="metadata7">
    <rdf:RDF>
      <cc:Work
         rdf:about="">
        <dc:format>image/svg+xml</dc:format>
        <dc:type
           rdf:resource="http://purl.org/dc/dcmitype/StillImage" />
        <dc:title />
      </cc:Work>
    </rdf:RDF>
  </metadata>
  <g
     inkscape:label="Layer 1"
     inkscape:groupmode="layer"
     id="layer1"
     transform="translate(0,-502.36218)">
    <g
       id="g5553"
       transform="translate(-51.164368,0)">
      <path
         sodipodi:nodetypes="ccccsc"
         transform="translate(0,502.36218)"
         inkscape:connector-curvature="0"
         id="path4224"
         d="m 201.42857,347.56128 c 18.69921,-62.68136 179.88964,-61.61931 200.13393,0 18.15275,-61.61931 184.79792,-58.58885 199.92021,0 15.9099,-54.54824 167.6052,-69.99475 199.25259,0 C 806.48729,185.30128 660.85967,52.168417 500.07178,48.89776 368.8028,46.22756 211.80105,151.4866 201.42857,347.56128 z"
         style="fill:#ffffff;fill-opacity:1;stroke:none" />
      <g
         style="fill:#26556b;fill-opacity:1"
         transform="matrix(1.2499999,0,0,1.2499999,164.22891,321.90947)"
         id="g3999">
        <rect
           style="fill:#26556b;fill-opacity:1;stroke:none"
           id="rect3833"
           width="20"
           height="20"
           x="189.41689"
           y="332.36218" />
        <rect
           style="fill:#26556b;fill-opacity:1;stroke:none"
           id="rect3833-9"
           width="119.85715"
           height="20"
           x="209.41689"
           y="312.36218" />
        <rect
           style="fill:#26556b;fill-opacity:1;stroke:none"
           id="rect3833-9-4"
           width="20"
           height="20"
           x="229.41689"
           y="312.36218" />
        <rect
           style="fill:#26556b;fill-opacity:1;stroke:none"
           id="rect3833-9-4-8"
           width="20"
           height="20"
           x="249.41689"
           y="312.36218" />
        <rect
           style="fill:#26556b;fill-opacity:1;stroke:none"
           id="rect3833-9-8"
           width="20"
           height="20"
           x="269.4169"
           y="312.36218" />
        <rect
           style="fill:#26556b;fill-opacity:1;stroke:none"
           id="rect3833-9-4-2"
           width="20"
           height="20"
           x="289.4169"
           y="312.36218" />
        <rect
           style="fill:#26556b;fill-opacity:1;stroke:none"
           id="rect3833-9-4-8-4"
           width="20"
           height="20"
           x="309.4169"
           y="312.36218" />
        <rect
           style="fill:#26556b;fill-opacity:1;stroke:none"
           id="rect3833-9-4-8-4-7"
           width="20"
           height="20"
           x="329.4169"
           y="332.36218" />
        <rect
           style="fill:#26556b;fill-opacity:1;stroke:none"
           id="rect3833-9-1"
           width="20"
           height="20"
           x="209.41689"
           y="252.36218" />
        <rect
           style="fill:#26556b;fill-opacity:1;stroke:none"
           id="rect3833-9-1-1"
           width="20"
           height="23.200001"
           x="209.41689"
           y="232.36218" />
        <rect
           style="fill:#26556b;fill-opacity:1;stroke:none"
           id="rect3833-9-1-5"
           width="20"
           height="25.6"
           x="309.4169"
           y="232.36218" />
        <rect
           style="fill:#26556b;fill-opacity:1;stroke:none"
           id="rect3833-9-1-1-2"
           width="20"
           height="20"
           x="309.4169"
           y="252.36218" />
      </g>
      <g
         transform="translate(0,2)"
         id="g4357">
        <path
           style="fill:#ffffff;fill-opacity:1;stroke:none"
           d="m 491.94429,806.62227 c 9.84899,-0.65239 19.95051,0 19.95051,0 l 0,120.71323 -20.45559,0 c 0,0 0.50508,-100.38819 0.50508,-120.71323 z"
           id="path4226"
           inkscape:connector-curvature="0"
           sodipodi:nodetypes="ccccc" />
        <path
           style="fill:#ffffff;fill-opacity:1;stroke:none"
           d="m 411.875,925.2729 c 7.50474,0 9.70238,0 14.55357,0 0,38.66145 64.91072,42.69165 64.91072,0 6.875,0 15.31451,0 20.625,0 -0.0771,30.17173 -25.67712,48.23452 -48.57143,48.57143 -23.59894,0.34728 -50.47649,-15.53572 -51.51786,-48.57143 z"
           id="path4236"
           inkscape:connector-curvature="0"
           sodipodi:nodetypes="cccccc" />
      </g>
    </g>
  </g>
</svg>
